Coordinates
version=1
nRows=27
nColumns=19
inDegrees=yes

Units are S.I. units (second, meters, Newtons, ...)
If the header above contains a line with 'inDegrees', this indicates whether rotational values are in degrees (yes) or radians (no).

endheader
time	pelvis_tilt	pelvis_list	pelvis_rotation	pelvis_tx	pelvis_ty	pelvis_tz	hip_flexion_r	hip_adduction_r	hip_rotation_r	knee_angle_r	knee_angle_r_beta	ankle_angle_r	hip_flexion_l	hip_adduction_l	hip_rotation_l	knee_angle_l	knee_angle_l_beta	ankle_angle_l
     13.22000000	     -0.64464791	      6.19730365	      4.16744578	      2.34910604	      0.95751978	      1.05703412	    -13.23165990	     -9.32095304	    -16.40680457	     81.24064571	      1.41791675	     -6.78638266	     21.46245702	     11.29068982	      1.63724850	     15.96912177	      0.27871375	      5.20696418
     13.22666667	     -0.72612659	      6.54939941	      4.62847166	      2.34716461	      0.95180075	      1.05561886	    -11.52776683	     -9.84627169	    -16.00071442	     85.70857323	      1.49589680	     -5.84608253	     22.01457714	     11.68487402	      0.67680280	     19.09397805	      0.33325278	      5.30712112
     13.23333333	     -0.06752929	      7.19058959	      5.12999878	      2.34513297	      0.94648957	      1.05437028	    -10.72295260	    -10.59238077	    -15.78116669	     89.93583151	      1.56967638	     -4.83891051	     21.73962970	     12.31916822	     -0.16895296	     22.34091380	      0.38992250	      5.62897113
     13.24000000	     -0.25528181	      7.46417102	      5.52968507	      2.34270206	      0.94020130	      1.05345200	     -8.64241363	    -10.85416602	    -14.97210458	     94.21651142	      1.64438833	     -3.99750111	     22.55218324	     12.56512387	     -0.90481874	     25.99366559	      0.45367505	      6.27632681
     13.24666667	     -0.08226067	      7.84237702	      5.90204533	      2.34012639	      0.93419962	      1.05269853	     -6.94291861	    -11.23079447	    -14.22853448	     98.29461198	      1.71556462	     -3.12858654	     22.89926136	     12.89819272	     -1.44972162	     29.59044579	      0.51645071	      7.27978472
     13.25333333	      0.10809691	      8.16698496	      6.15285738	      2.33735898	      0.92837779	      1.05227613	     -5.10214883	    -11.51185683	    -13.28790661	    102.20182858	      1.78375841	     -2.37979593	     23.14058920	     13.14200265	     -1.87786052	     33.06528812	      0.57709815	      8.63010059
     13.26000000	      0.92779178	      8.80260479	      6.44406288	      2.33462303	      0.92352435	      1.05196884	     -4.04846114	    -12.14473687	    -12.58468452	    105.76456317	      1.84593986	     -1.75686176	     22.40848500	     13.73298355	     -1.96817468	     36.10108609	      0.63008282	     10.30484552
     13.26666667	      0.46273051	      8.72766028	      6.30454910	      2.33139182	      0.91787224	      1.05225071	     -0.92362141	    -11.95820384	    -10.91439719	    109.38152665	      1.90906778	     -1.20969635	     23.15305876	     13.49747392	     -2.39140153	     39.14733674	      0.68324992	     12.11396612
     13.27333333	      0.45786249	      8.95254906	      6.30226308	      2.32829242	      0.91329697	      1.05246395	      1.57371154	    -12.15314752	     -9.58571740	    112.58895200	      1.96504791	     -0.76504146	     23.01544003	     13.66482712	     -2.40004790	     41.59229253	      0.72592245	     14.12002710
     13.28000000	      0.58832888	      9.15358291	      6.08400027	      2.32517999	      0.90963652	      1.05301259	      4.10345798	    -12.28199774	     -8.04608728	    115.45798824	      2.01512204	     -0.41860963	     22.47028301	     13.72862488	     -2.47630812	     43.53918175	      0.75990208	     16.16060822
     13.28666667	      0.80319426	      9.29938550	      5.77443059	      2.32222085	      0.90691412	      1.05372160	      6.64115245	    -12.31002832	     -6.45565610	    117.91354395	      2.05797957	     -0.13248696	     21.53992340	     13.72063622	     -2.48392258	     44.97027083	      0.78487929	     18.17577639
     13.29333333	      1.43262622	      9.25951458	      5.77383320	      2.32023526	      0.90597305	      1.05415372	      8.45073273	    -12.13822129	     -5.46805536	    119.53918445	      2.08635235	      0.08265400	     19.71037735	     13.64574646	     -1.89953313	     45.79034031	      0.79919220	     20.16887315
     13.30000000	      3.49016148	      8.82446774	      5.95251471	      2.32009035	      0.90844439	      1.05455473	      8.18456210	    -11.33639545	     -5.27457529	    119.85423206	      2.09185097	      0.22462923	     15.77401422	     13.01990725	     -0.88551106	     45.87190868	      0.80061584	     21.92259213
     13.30666667	      5.35489387	      8.27530410	      6.01080532	      2.31978802	      0.91133758	      1.05485595	      8.24249531	    -10.49236126	     -5.02003287	    119.90739025	      2.09277876	      0.44645097	     11.86104609	     12.21351661	      0.03351766	     45.49595814	      0.79405427	     23.43468075
     13.31333333	      6.59628769	      7.67246070	      5.78380811	      2.31904800	      0.91398698	      1.05519421	      9.25223780	     -9.65072981	     -4.36911959	    119.92551289	      2.09309506	      0.69828967	      8.52919201	     11.34871414	      0.59434341	     44.73935831	      0.78084911	     24.57675407
     13.32000000	      7.01434375	      6.97848898	      5.35320320	      2.31792773	      0.91599567	      1.05548278	     11.37570368	     -8.78597832	     -3.44047675	    119.93183193	      2.09320535	      1.01782260	      6.07922612	     10.45139772	      0.78291725	     43.81297730	      0.76468071	     25.34000803
     13.32666667	      6.89502806	      6.38581256	      4.75888304	      2.31640174	      0.91751112	      1.05565710	     14.20014108	     -8.09242688	     -2.33238302	    119.92971888	      2.09316847	      1.45467516	      4.17546947	      9.76451955	      0.75061507	     42.71405229	      0.74550085	     25.73674019
     13.33333333	      6.16078623	      5.89705042	      3.85357013	      2.31459683	      0.91840120	      1.05601123	     17.85783266	     -7.41168066	     -0.87030235	    119.91941691	      2.09298866	      1.88551371	      2.93391494	      9.24767523	      0.26157354	     41.50885884	      0.72446626	     25.71073917
     13.34000000	      4.56737458	      5.57684921	      2.87276504	      2.31266902	      0.91829718	      1.05632775	     22.51722953	     -6.80150619	      0.73635377	    119.89350901	      2.09253648	      2.34722410	      2.66728586	      8.99143939	     -0.43753886	     40.36729404	      0.70454219	     25.33905359
     13.34666667	      2.64548347	      5.63933678	      1.77122075	      2.31068560	      0.91767844	      1.05670695	     27.53827213	     -6.41915991	      2.53383419	    119.80307848	      2.09095817	      2.84009463	      2.73154357	      9.16337324	     -1.29609599	     39.13425991	      0.68302169	     24.55592637
     13.35333333	      1.52035601	      5.75087653	      0.83084315	      2.30955885	      0.91854394	      1.05682787	     31.26676361	     -6.06001159	      3.90178681	    119.14263470	      2.07943126	      3.46489742	      1.71228660	      9.38636212	     -1.89088031	     37.49332561	      0.65438198	     23.28084689
     13.36000000	      0.68400896	      4.87119606	      0.81048659	      2.31032991	      0.92165087	      1.05588253	     33.73596467	     -5.19029260	      3.55980139	    117.29708752	      2.04722038	      4.06649831	      0.18873382	      8.54775168	     -1.59550967	     35.74405425	      0.62385143	     21.72055579
     13.36666667	     -0.16846382	      4.02481695	      0.59023571	      2.31157652	      0.92533391	      1.05516420	     36.03779490	     -4.20599237	      3.33072056	    115.11251665	      2.00909243	      4.69394000	     -1.41887781	      7.75654270	     -1.46327672	     33.66813542	      0.58761982	     19.48811710
     13.37333333	      0.32540396	      3.07041801	      0.19109421	      2.31337149	      0.93096356	      1.05459662	     36.53318361	     -3.14212306	      2.94338577	    112.49443433	      1.96339827	      5.39313271	     -4.68243478	      6.82723306	     -1.57289185	     31.07095952	      0.54229055	     16.75799912
     13.38000000	      0.05375071	      2.04312961	      0.07599486	      2.31533902	      0.93597376	      1.05384023	     37.69346032	     -2.17302568	      2.25824516	    109.68329676	      1.91433466	      6.02199089	     -6.97338801	      5.80240116	     -1.55077780	     28.67449526	      0.50046435	     13.70501705
     13.38666667	     -1.15108751	      1.09558401	      0.09629625	      2.31737541	      0.94002916	      1.05314406	     39.77695967	     -1.35214612	      1.49724567	    106.74779892	      1.86310056	      6.53520416	     -8.02532678	      4.80603343	     -1.57691192	     26.63223425	      0.46482017	     10.33630455
     13.39333333	     -0.65837297	      0.00475629	     -0.13992164	      2.31975304	      0.94611005	      1.05268955	     39.73820603	     -0.34765394	      0.69754570	    103.45422870	      1.80561692	      7.07943395	    -11.15864318	      3.71159266	     -1.94066639	     23.93211865	      0.41769427	      6.63829129
